<?xml version="1.0" encoding="utf-8"?><!-- Uploaded to: SVG Repo, www.svgrepo.com, Generator: SVG Repo Mixer Tools -->
<svg version="1.1" id="Uploaded to svgrepo.com" xmlns="http://www.w3.org/2000/svg" xmlns:xlink="http://www.w3.org/1999/xlink" 
	 width="800px" height="800px" viewBox="0 0 32 32" xml:space="preserve">
<style type="text/css">
	.stone_een{fill:#111918;}
	.st0{fill:#0B1719;}
</style>
<path class="stone_een" d="M27,17c0-0.552-0.448-1-1-1h-6v4h6c0.552,0,1-0.448,1-1V17z M25,18.5c0,0.276-0.224,0.5-0.5,0.5
	S24,18.776,24,18.5v-1c0-0.276,0.224-0.5,0.5-0.5s0.5,0.224,0.5,0.5V18.5z M14,16.5c0,0.276-0.224,0.5-0.5,0.5S13,16.776,13,16.5
	s0.224-0.5,0.5-0.5S14,16.224,14,16.5z M14,22.5c0,0.276-0.224,0.5-0.5,0.5S13,22.776,13,22.5s0.224-0.5,0.5-0.5S14,22.224,14,22.5z
	 M26,21h-6v4h6c0.552,0,1-0.448,1-1v-2C27,21.448,26.552,21,26,21z M25,23.5c0,0.276-0.224,0.5-0.5,0.5S24,23.776,24,23.5v-1
	c0-0.276,0.224-0.5,0.5-0.5s0.5,0.224,0.5,0.5V23.5z M14,10.5c0,0.276-0.224,0.5-0.5,0.5S13,10.776,13,10.5s0.224-0.5,0.5-0.5
	S14,10.224,14,10.5z M28.449,26h-0.001c-0.233,0-0.441,0.16-0.486,0.389C27.781,27.306,26.97,28,26,28s-1.781-0.694-1.962-1.611
	C23.993,26.16,23.785,26,23.552,26h-0.103c-0.233,0-0.441,0.159-0.486,0.387c-0.199,1.01-1.16,1.749-2.257,1.592
	c-0.971-0.139-1.666-1.003-1.699-1.979H19V3.456c0-0.702-0.704-1.185-1.359-0.933L7.923,6.26C6.764,6.706,6,7.819,6,9.06V28
	c-0.97,0-1.781-0.694-1.962-1.611C3.993,26.16,3.785,26,3.552,26H3.551c-0.31,0-0.554,0.28-0.493,0.584C3.33,27.96,4.546,29,6,29
	c1.044,0,1.962-0.537,2.5-1.348C9.038,28.463,9.956,29,11,29s1.962-0.537,2.5-1.348C14.038,28.463,14.956,29,16,29
	s1.962-0.537,2.5-1.348C19.038,28.463,19.956,29,21,29s1.962-0.537,2.5-1.348C24.038,28.463,24.956,29,26,29
	c1.454,0,2.67-1.04,2.943-2.416C29.003,26.28,28.759,26,28.449,26z M13.5,24c-0.828,0-1.5-0.672-1.5-1.5s0.672-1.5,1.5-1.5
	s1.5,0.672,1.5,1.5S14.328,24,13.5,24z M13.5,18c-0.828,0-1.5-0.672-1.5-1.5s0.672-1.5,1.5-1.5s1.5,0.672,1.5,1.5S14.328,18,13.5,18
	z M13.5,12c-0.828,0-1.5-0.672-1.5-1.5S12.672,9,13.5,9S15,9.672,15,10.5S14.328,12,13.5,12z M20,15h6c0.552,0,1-0.448,1-1v-2
	c0-0.552-0.448-1-1-1h-6V15z M24.5,12c0.276,0,0.5,0.224,0.5,0.5v1c0,0.276-0.224,0.5-0.5,0.5S24,13.776,24,13.5v-1
	C24,12.224,24.224,12,24.5,12z"/>
</svg>